<svg width="40" height="40" viewBox="0 0 40 40" fill="none" xmlns="http://www.w3.org/2000/svg">
<g id="icons8-youtube-48 2" clip-path="url(#clip0_130_4188)">
<path id="Vector" d="M39.2 29.9C38.8 32 37.1 33.6 35 33.9C31.7 34.4 26.2 35 20 35C13.9 35 8.4 34.4 5 33.9C2.9 33.6 1.2 32 0.8 29.9C0.4 27.6 0 24.2 0 20C0 15.8 0.4 12.4 0.8 10.1C1.2 8 2.9 6.4 5 6.1C8.3 5.6 13.8 5 20 5C26.2 5 31.6 5.6 35 6.1C37.1 6.4 38.8 8 39.2 10.1C39.6 12.4 40.1 15.8 40.1 20C40 24.2 39.6 27.6 39.2 29.9Z" fill="#FF0000"/>
<path id="Vector_2" d="M16.8 26V14L27.2 20L16.8 26Z" fill="white"/>
</g>
<defs>
<clipPath id="clip0_130_4188">
<rect width="40" height="40" fill="white"/>
</clipPath>
</defs>
</svg>
